<svg width="274" height="57" viewBox="0 0 274 57" fill="none" xmlns="http://www.w3.org/2000/svg">
<path d="M55.1091 45.4131C55.8574 52.3072 56.9204 56.0303 61.4872 56.0303V56.5895H46.7239V56.0303C51.1997 56.0303 51.4795 52.4488 50.7941 45.8095L46.7239 8.6353L22.9948 40.7557L22.5542 40.423C25.946 35.702 25.0579 33.076 21.9108 28.093L10.9029 11.1409C10.8959 11.2259 7.16838 45.8095 7.16838 45.8095C6.48301 52.4488 6.76276 56.0303 11.2386 56.0303V56.5895H0V56.0303C4.55979 56.0303 5.6298 52.3072 6.37811 45.4131L10.0427 11.4028C10.7561 4.62907 10.5113 0.976782 5.99347 0.976782V0.417627H17.2321V0.976782C13.6024 0.976782 13.0779 3.13561 12.98 3.76556C12.6793 5.64833 13.8752 7.71516 14.8543 9.27234L29.0652 31.1578L44.0523 10.879C45.2902 9.05289 45.8007 6.97194 45.5629 5.08916C45.2552 2.66137 43.5278 0.983867 40.7304 0.983867V0.424712H55.4938V0.983867C50.9759 0.983867 50.7312 4.63616 51.4445 11.4099L55.1091 45.4273V45.4131ZM90.2936 46.0148C91.5874 52.5195 93.0141 56.0232 97.441 56.0232V56.5824H82.6916V56.0232C87.1325 56.0232 87.1046 52.4983 85.8877 45.9581L85.0205 41.4282H71.8377L70.9914 45.8449C69.7536 52.4629 69.7046 56.0303 74.1665 56.0303V56.5895H62.9769V56.0303C67.5366 56.0303 68.9144 52.3072 70.2431 45.4131L76.7541 11.3745C78.027 4.61493 78.1319 0.969697 73.621 0.969697V0.410542H86.7969V0.969697C82.349 0.969697 82.3839 4.50877 83.6078 11.0773L90.2936 46.0148ZM84.8596 40.6L78.4256 7.00026L71.9915 40.6H84.8527H84.8596ZM116.995 38.1085C120.149 44.4151 119.967 49.3415 117.54 52.7461C115.701 55.3225 113.023 57 108.827 57C108.015 57 107.267 56.9505 106.589 56.8655C105.274 56.7027 103.12 56.5895 101.763 56.5895H99.679L98.574 42.8084H99.1265C99.8888 51.7268 102.281 54.8483 106.449 55.8958C107.071 55.9878 107.756 56.0444 108.505 56.0444C111.813 56.0444 114.757 53.7582 115.386 51.2101C116.408 47.0836 115.023 44.0895 113.149 40.3027L100.847 16.5911C98.1474 11.3958 98.567 6.59679 100.805 3.66645C102.497 1.44393 104.882 0 108.498 0C109.197 0 109.841 0.0424565 110.421 0.120316C111.869 0.304346 114.163 0.417627 115.631 0.417627H117.61L118.715 14.1987H118.163C117.31 4.14777 114.953 1.50762 109.75 0.870593C109.421 0.849359 109.085 0.828126 108.729 0.828126C105.882 0.828126 103.246 2.79584 102.588 4.99006C101.525 8.54326 102.896 10.9569 104.686 14.404L116.988 38.1156L116.995 38.1085ZM149.27 23.9806V45.2928C149.27 52.2647 149.809 56.0232 154.396 56.0232V56.5824H139.829V56.0232C144.417 56.0232 144.955 52.2576 144.955 45.2928V11.7001C144.955 4.72819 144.417 0.969697 139.829 0.969697V0.410542H153.249C160.879 0.410542 166.306 4.40968 166.306 11.3887C166.306 19.486 159.774 23.9877 151.033 23.9877H149.27V23.9806ZM149.27 1.23867V23.1525H151.312C157.299 23.1525 161.719 19.4789 161.719 11.8063C161.719 4.87681 157.257 1.23867 152.005 1.23867H149.27ZM188.007 46.0148C189.301 52.5195 190.728 56.0232 195.155 56.0232V56.5824H180.405V56.0232C184.846 56.0232 184.818 52.4983 183.601 45.9581L182.734 41.4282H169.551L168.705 45.8449C167.467 52.4629 167.418 56.0303 171.88 56.0303V56.5895H160.691V56.0303C165.25 56.0303 166.628 52.3072 167.957 45.4131L174.468 11.3745C175.741 4.61493 175.846 0.969697 171.335 0.969697V0.410542H184.511V0.969697C180.063 0.969697 180.098 4.50877 181.322 11.0773L188.007 46.0148ZM182.573 40.6L176.139 7.00026L169.705 40.6H182.566H182.573ZM221.031 42.8013H221.583L220.478 56.5824H196.756V56.0232C201.344 56.0232 201.883 52.2576 201.883 45.2928V11.7001C201.883 4.72819 201.344 0.969697 196.756 0.969697V0.410542H211.324V0.969697C206.736 0.969697 206.198 4.73527 206.198 11.7001V45.2928C206.198 52.0524 206.708 55.5419 210.918 55.7401C216.576 55.6551 220.059 54.1758 221.031 42.7942V42.8013ZM243.172 20.5902C243.172 33.4016 236.361 41.1663 226.171 41.1663C215.982 41.1663 209.17 33.4087 209.17 20.5902C209.17 7.77178 215.982 0.01417 226.171 0.01417C236.361 0.01417 243.172 7.77178 243.172 20.5902ZM238.892 20.5902C238.892 9.07415 233.298 0.842296 226.171 0.842296C219.045 0.842296 213.45 9.07415 213.45 20.5902C213.45 32.1063 219.045 40.3381 226.171 40.3381C233.298 40.3381 238.892 32.1063 238.892 20.5902ZM274 0.410542V0.969697C269.412 0.969697 268.874 4.73527 268.874 11.7001V39.4817C268.874 53.2061 264.796 57 258.698 57C252.6 57 248.523 53.2061 248.523 39.4817V11.7001C248.523 4.72819 247.984 0.969697 243.396 0.969697V0.410542H257.964V0.969697C253.376 0.969697 252.838 4.73527 252.838 11.7001V39.0641C252.838 53.652 255.782 56.1718 258.698 56.1718C261.614 56.1718 264.559 53.6591 264.559 39.0641V11.7001C264.559 4.72819 264.02 0.969697 259.432 0.969697V0.410542H274Z" fill="#CCEBE3"/>
</svg>
