<svg width="283" height="209" viewBox="0 0 283 209" fill="none" xmlns="http://www.w3.org/2000/svg">
<path fill-rule="evenodd" clip-rule="evenodd" d="M53.2322 13.1702C50.8862 13.1702 49.7302 11.5722 49.5092 10.2802L50.9372 9.90618C51.1752 10.9432 51.8722 11.7252 53.2322 11.7252C54.5412 11.7252 55.3912 10.8582 55.3912 9.80418C55.3912 8.60795 54.5563 8.29671 53.565 7.92717L53.5382 7.91718L51.9912 7.33918C50.9032 6.94818 49.7642 6.03018 49.7642 4.26218C49.7642 2.39218 51.3452 0.930176 53.2322 0.930176C55.0172 0.930176 56.2072 1.88218 56.5982 3.42918L55.1872 3.82018C54.9662 3.10618 54.5072 2.37518 53.2322 2.37518C52.0252 2.37518 51.3282 3.22518 51.3282 4.16018C51.3282 4.95918 51.6512 5.55418 52.8752 6.01318L54.2522 6.52318C55.9182 7.11818 56.9722 7.96818 56.9722 9.68518C56.9722 11.3852 55.5782 13.1702 53.2322 13.1702ZM69.6229 1.10018H68.1269L63.0269 13.0002H64.5909L66.2399 9.14118H71.4249L73.0739 13.0002H74.7059L69.6229 1.10018ZM70.8469 7.78118H66.8179L68.8409 3.03818L70.8469 7.78118ZM79.4349 1.10018H81.0669L84.9089 11.0112L88.7339 1.10018H90.2809L85.6059 13.0002H84.1099L79.4349 1.10018ZM104.151 1.10018H97.3678V13.0002H104.236V11.6402H98.8638V7.37318H104.066V6.01318H98.8638V2.46018H104.151V1.10018ZM123.257 2.46018H119.721V1.10018H128.272V2.46018H124.753V13.0002H123.257V2.46018ZM136.908 1.10018H135.412V13.0002H136.908V7.37318H143.674V13.0002H145.187V1.10018H143.674V6.01318H136.908V1.10018ZM153.694 1.10018H160.477V2.46018H155.19V6.01318H160.392V7.37318H155.19V11.6402H160.562V13.0002H153.694V1.10018ZM187.593 7.05018C187.593 3.73518 185.043 1.10018 181.473 1.10018H177.988V13.0002H181.473C185.043 13.0002 187.593 10.3652 187.593 7.05018ZM181.473 11.5552H179.484V2.54518H181.473C184.074 2.54518 186.012 4.44918 186.012 7.05018C186.012 9.65118 184.074 11.5552 181.473 11.5552ZM198.529 1.10018H200.025L205.108 13.0002H203.476L201.827 9.14118H196.642L194.993 13.0002H193.429L198.529 1.10018ZM197.22 7.78118H201.249L199.243 3.03818L197.22 7.78118ZM209.655 2.46018H213.191V13.0002H214.687V2.46018H218.206V1.10018H209.655V2.46018ZM232.129 1.10018H225.346V13.0002H232.214V11.6402H226.842V7.37318H232.044V6.01318H226.842V2.46018H232.129V1.10018ZM252.552 62.8617L277.683 123.496H277.883V75.1282C277.883 62.762 278.88 56.878 280.874 52.3903V52.1908H267.611V52.3903C274.292 56.4791 276.486 61.1663 276.486 75.1282V104.049H276.287L255.444 52.1908H247.964V52.3903L249.261 55.1827C250.657 58.374 250.956 60.4682 250.956 63.6595V98.9631C250.956 112.127 249.859 118.011 247.964 121.801V122H261.527V121.801C254.646 117.712 252.352 112.925 252.352 98.9631V62.8617H252.552ZM239.214 123.496L214.083 62.8617H213.883V98.9631C213.883 112.925 216.177 117.712 223.058 121.801V122H209.495V121.801C211.39 118.011 212.487 112.127 212.487 98.9631V63.6595C212.487 60.4682 212.188 58.374 210.792 55.1827L209.495 52.3903V52.1908H216.975L237.818 104.049H238.017V75.1282C238.017 61.1663 235.823 56.4791 229.142 52.3903V52.1908H242.405V52.3903C240.411 56.878 239.413 62.762 239.413 75.1282V123.496H239.214ZM178.044 98.9631C175.75 111.728 173.955 118.211 171.761 121.801V122H183.229V121.801C178.442 118.011 177.046 113.523 178.941 101.157H193.701L195.995 112.127C197.291 118.41 196.892 119.806 193.501 121.801V122H204.671L190.21 52.1908H183.628L184.027 54.4846C184.626 57.277 184.725 59.471 184.127 62.2633L178.044 98.9631ZM193.501 99.9604H179.141L179.34 98.9631L185.523 62.5625H185.723L193.501 99.9604ZM146.73 52.1908V52.3903C143.239 54.3848 142.142 55.8808 142.142 62.2633V83.4056H158.099V62.2633C158.099 55.8808 156.902 54.3848 153.511 52.3903V52.1908H169.169V52.3903C165.678 54.3848 164.581 55.8808 164.581 62.2633V111.928C164.581 118.31 165.678 119.806 169.169 121.801V122H153.511V121.801C156.902 119.806 158.099 118.31 158.099 111.928V84.6023H142.142V111.928C142.142 118.31 143.239 119.806 146.73 121.801V122H131.073V121.801C134.463 119.806 135.66 118.31 135.66 111.928V62.2633C135.66 55.8808 134.463 54.3848 131.073 52.3903V52.1908H146.73ZM93.1138 87.1952C93.1138 109.036 99.3967 123.496 108.971 123.496C113.857 123.496 117.747 118.809 119.143 111.828L124.727 123.496H124.927V87.9931H108.272V89.1898H118.744V101.755C118.744 113.623 115.154 120.903 110.466 120.903C103.884 120.903 100.194 111.03 100.194 87.9931C100.194 63.5598 104.483 52.0911 111.165 52.0911C114.456 52.0911 117.946 55.0829 116.051 65.7538L114.555 74.5298L114.854 74.829L124.129 64.0584C122.234 56.1799 116.65 50.6949 110.267 50.6949C99.995 50.6949 93.1138 65.0557 93.1138 87.1952ZM55.5952 122V121.801C58.9859 119.806 60.1827 118.31 60.1827 111.928V62.2633C60.1827 55.8808 58.9859 54.3848 55.5952 52.3903V52.1908H86.81V69.344H86.6105C81.7238 55.6813 80.2279 53.3876 70.6541 53.3876H66.665V83.4056H67.762C73.5462 83.4056 76.0394 80.8127 78.9315 72.4356H79.1309L80.7266 95.3729H80.5271C76.538 86.8961 73.6459 84.6023 67.9614 84.6023H66.665V120.704H70.8535C79.9287 120.704 81.6241 118.809 88.1064 102.055H88.3059L87.2088 122H55.5952ZM5.14315 98.9631C4.2456 111.429 3.04887 117.612 0.95459 121.801V122H13.0216V121.801C6.33988 117.812 5.54206 113.124 6.53934 98.9631L8.63362 67.2497H8.83307L23.8919 114.221H24.0914L39.4495 63.3603H39.6489L43.638 111.928C44.1367 118.31 43.3388 119.806 39.8484 121.801V122H51.1176L46.1312 62.2633C45.6326 55.8808 46.4304 54.3848 49.9209 52.3903V52.1908H38.5519L38.6516 53.8862C38.9508 57.6759 38.7514 60.0693 37.7541 63.4601L26.784 100.958H26.5846L10.8276 52.1908H3.74696V52.3903L5.44233 57.6759C6.93825 61.8644 7.33716 65.2552 6.93825 70.5407L5.14315 98.9631ZM268.797 208.496C261.018 208.496 255.732 203.31 254.137 194.933L263.411 183.863L263.71 184.063L262.214 193.238C260.619 203.609 263.611 207.1 268.298 207.1C273.683 207.1 276.775 202.512 276.775 195.731C276.775 190.745 274.98 186.955 270.392 179.974L261.915 167.807C257.926 161.923 255.732 156.737 255.732 150.754C255.732 141.978 260.719 135.695 268.198 135.695C275.279 135.695 280.265 141.18 281.562 148.959L272.786 159.729L272.486 159.53L273.883 150.654C275.578 140.382 272.686 136.991 268.597 136.991C263.611 136.991 261.317 141.978 261.317 147.164C261.317 152.349 263.311 157.934 267.101 163.419L276.176 176.085C280.265 181.869 282.858 187.254 282.858 193.437C282.858 202.712 276.874 208.496 268.797 208.496ZM217.117 206.801V207H248.73L249.827 187.055H249.628C243.145 203.809 241.45 205.704 232.375 205.704H228.186V169.602H229.483C235.167 169.602 238.059 171.896 242.048 180.373H242.248L240.652 157.436H240.453C237.561 165.813 235.068 168.406 229.283 168.406H228.186V138.388H232.175C241.749 138.388 243.245 140.681 248.132 154.344H248.331V137.191H217.117V137.39C220.507 139.385 221.704 140.881 221.704 147.263V196.928C221.704 203.31 220.507 204.806 217.117 206.801ZM162.476 206.801C164.57 202.612 165.767 196.429 166.665 183.963L168.46 155.541C168.859 150.255 168.46 146.864 166.964 142.676L165.268 137.39V137.191H172.349L188.106 185.958H188.305L199.275 148.46C200.273 145.069 200.472 142.676 200.173 138.886L200.073 137.191H211.442V137.39C207.952 139.385 207.154 140.881 207.653 147.263L212.639 207H201.37V206.801C204.86 204.806 205.658 203.31 205.159 196.928L201.17 148.36H200.971L185.613 199.221H185.413L170.354 152.25H170.155L168.061 183.963C167.063 198.124 167.861 202.812 174.543 206.801V207H162.476V206.801ZM132.221 183.963C129.927 196.728 128.132 203.211 125.938 206.801V207H137.407V206.801C132.62 203.011 131.224 198.523 133.119 186.157H147.878L150.172 197.127C151.469 203.41 151.07 204.806 147.679 206.801V207H158.848L144.388 137.191H137.806L138.205 139.485C138.803 142.277 138.903 144.471 138.304 147.263L132.221 183.963ZM147.679 184.96H133.318L133.518 183.963L139.701 147.563H139.9L147.679 184.96ZM107.216 208.496C101.93 208.496 97.7418 204.906 95.3484 197.227L106.418 184.561L106.618 184.661L103.725 194.734C101.033 204.208 103.925 207.2 107.316 207.2C112.302 207.2 116.69 201.017 116.69 188.551V147.263C116.69 140.881 115.593 139.385 112.103 137.39V137.191H123.172V182.068C123.172 191.642 121.577 196.529 117.787 201.814C114.795 206.003 111.405 208.496 107.216 208.496ZM25.2064 190.839C25.2064 199.278 30.6004 204.498 37.9084 204.498C43.9114 204.498 48.1744 201.366 52.2634 195.972C54.6994 198.669 57.2224 201.105 59.6584 203.193H66.9664V203.019C63.1384 199.713 59.2234 195.711 55.4824 191.274C59.6584 184.14 62.3554 177.441 65.0524 167.523H51.6544V167.697L53.4814 169.002C58.8754 172.743 58.8754 181.095 54.6994 190.317C49.0444 183.531 43.8244 175.962 40.1704 168.915C47.1304 162.825 51.5674 157.953 51.5674 151.689C51.5674 145.338 47.8264 140.988 40.9534 140.988C33.7324 140.988 29.6434 145.947 29.6434 153.516C29.6434 158.562 31.8184 164.913 35.2114 171.612C28.4254 177.963 25.2064 184.14 25.2064 190.839ZM40.6924 201.105C35.2114 201.105 30.6004 196.929 30.6004 188.751C30.6004 183.618 32.1664 178.224 35.9074 172.917C39.9964 180.66 45.6514 188.577 51.5674 195.189C48.1744 199.365 44.9554 201.105 40.6924 201.105ZM39.5614 167.697C36.5164 161.52 34.6024 155.778 34.6024 151.341C34.6024 144.642 37.2124 142.119 40.9534 142.119C44.6944 142.119 46.9564 145.86 46.9564 151.863C46.9564 156.039 44.3464 162.129 39.5614 167.697ZM82.3421 183.093C81.4317 179.386 80.5212 178.476 76.8143 177.565V177.435C80.5212 176.525 81.4317 175.614 82.3421 171.907H82.4722C83.3827 175.614 84.3582 176.46 88 177.435V177.565C84.3582 178.476 83.4477 179.386 82.4722 183.093H82.3421ZM1.00002 180.051C4.70691 180.961 5.61737 181.872 6.52784 185.579H6.65791C7.63341 181.872 8.54387 180.961 12.1857 180.051V179.921C8.54387 178.945 7.56837 178.1 6.65791 174.393H6.52784C5.61737 178.1 4.70691 179.01 1.00002 179.921V180.051Z" fill="#1B4438"/>
</svg>
