<svg width="283" height="209" viewBox="0 0 283 209" fill="none" xmlns="http://www.w3.org/2000/svg">
<path fill-rule="evenodd" clip-rule="evenodd" d="M53.2327 13.1702C50.8867 13.1702 49.7307 11.5722 49.5097 10.2802L50.9377 9.90618C51.1757 10.9432 51.8727 11.7252 53.2327 11.7252C54.5417 11.7252 55.3917 10.8582 55.3917 9.80418C55.3917 8.60795 54.5568 8.29671 53.5655 7.92717L53.5387 7.91718L51.9917 7.33918C50.9037 6.94818 49.7647 6.03018 49.7647 4.26218C49.7647 2.39218 51.3457 0.930176 53.2327 0.930176C55.0177 0.930176 56.2077 1.88218 56.5987 3.42918L55.1877 3.82018C54.9667 3.10618 54.5077 2.37518 53.2327 2.37518C52.0257 2.37518 51.3287 3.22518 51.3287 4.16018C51.3287 4.95918 51.6517 5.55418 52.8757 6.01318L54.2527 6.52318C55.9187 7.11818 56.9727 7.96818 56.9727 9.68518C56.9727 11.3852 55.5787 13.1702 53.2327 13.1702ZM69.6233 1.10018H68.1273L63.0273 13.0002H64.5913L66.2403 9.14118H71.4253L73.0743 13.0002H74.7063L69.6233 1.10018ZM70.8474 7.78118H66.8183L68.8413 3.03818L70.8474 7.78118ZM79.4354 1.10018H81.0674L84.9094 11.0112L88.7344 1.10018H90.2814L85.6064 13.0002H84.1104L79.4354 1.10018ZM104.151 1.10018H97.3683V13.0002H104.236V11.6402H98.8643V7.37318H104.066V6.01318H98.8643V2.46018H104.151V1.10018ZM123.258 2.46018H119.722V1.10018H128.273V2.46018H124.754V13.0002H123.258V2.46018ZM136.908 1.10018H135.412V13.0002H136.908V7.37318H143.674V13.0002H145.187V1.10018H143.674V6.01318H136.908V1.10018ZM153.694 1.10018H160.477V2.46018H155.19V6.01318H160.392V7.37318H155.19V11.6402H160.562V13.0002H153.694V1.10018ZM187.594 7.05018C187.594 3.73518 185.044 1.10018 181.474 1.10018H177.989V13.0002H181.474C185.044 13.0002 187.594 10.3652 187.594 7.05018ZM181.474 11.5552H179.485V2.54518H181.474C184.075 2.54518 186.013 4.44918 186.013 7.05018C186.013 9.65118 184.075 11.5552 181.474 11.5552ZM198.529 1.10018H200.025L205.108 13.0002H203.476L201.827 9.14118H196.642L194.993 13.0002H193.429L198.529 1.10018ZM197.22 7.78118H201.249L199.243 3.03818L197.22 7.78118ZM209.656 2.46018H213.192V13.0002H214.688V2.46018H218.207V1.10018H209.656V2.46018ZM232.129 1.10018H225.346V13.0002H232.214V11.6402H226.842V7.37318H232.044V6.01318H226.842V2.46018H232.129V1.10018ZM252.552 62.8617L277.684 123.496H277.883V75.1282C277.883 62.762 278.88 56.878 280.875 52.3903V52.1908H267.611V52.3903C274.293 56.4791 276.487 61.1663 276.487 75.1282V104.049H276.287L255.444 52.1908H247.965V52.3903L249.261 55.1827C250.657 58.374 250.957 60.4682 250.957 63.6595V98.9631C250.957 112.127 249.86 118.011 247.965 121.801V122H261.528V121.801C254.647 117.712 252.353 112.925 252.353 98.9631V62.8617H252.552ZM239.214 123.496L214.083 62.8617H213.884V98.9631C213.884 112.925 216.177 117.712 223.059 121.801V122H209.496V121.801C211.39 118.011 212.487 112.127 212.487 98.9631V63.6595C212.487 60.4682 212.188 58.374 210.792 55.1827L209.496 52.3903V52.1908H216.975L237.818 104.049H238.018V75.1282C238.018 61.1663 235.824 56.4791 229.142 52.3903V52.1908H242.406V52.3903C240.411 56.878 239.414 62.762 239.414 75.1282V123.496H239.214ZM178.044 98.9631C175.75 111.728 173.955 118.211 171.761 121.801V122H183.23V121.801C178.443 118.011 177.047 113.523 178.942 101.157H193.701L195.995 112.127C197.291 118.41 196.893 119.806 193.502 121.801V122H204.671L190.211 52.1908H183.629L184.028 54.4846C184.626 57.277 184.726 59.471 184.127 62.2633L178.044 98.9631ZM193.502 99.9604H179.141L179.341 98.9631L185.524 62.5625H185.723L193.502 99.9604ZM146.73 52.1908V52.3903C143.24 54.3848 142.143 55.8808 142.143 62.2633V83.4056H158.099V62.2633C158.099 55.8808 156.903 54.3848 153.512 52.3903V52.1908H169.169V52.3903C165.679 54.3848 164.582 55.8808 164.582 62.2633V111.928C164.582 118.31 165.679 119.806 169.169 121.801V122H153.512V121.801C156.903 119.806 158.099 118.31 158.099 111.928V84.6023H142.143V111.928C142.143 118.31 143.24 119.806 146.73 121.801V122H131.073V121.801C134.464 119.806 135.661 118.31 135.661 111.928V62.2633C135.661 55.8808 134.464 54.3848 131.073 52.3903V52.1908H146.73ZM93.1143 87.1952C93.1143 109.036 99.3971 123.496 108.971 123.496C113.858 123.496 117.747 118.809 119.143 111.828L124.728 123.496H124.927V87.9931H108.273V89.1898H118.744V101.755C118.744 113.623 115.154 120.903 110.467 120.903C103.885 120.903 100.195 111.03 100.195 87.9931C100.195 63.5598 104.483 52.0911 111.165 52.0911C114.456 52.0911 117.946 55.0829 116.052 65.7538L114.556 74.5298L114.855 74.829L124.13 64.0584C122.235 56.1799 116.65 50.6949 110.267 50.6949C99.9955 50.6949 93.1143 65.0557 93.1143 87.1952ZM55.5957 122V121.801C58.9864 119.806 60.1832 118.31 60.1832 111.928V62.2633C60.1832 55.8808 58.9864 54.3848 55.5957 52.3903V52.1908H86.8104V69.344H86.611C81.7243 55.6813 80.2284 53.3876 70.6546 53.3876H66.6655V83.4056H67.7625C73.5467 83.4056 76.0398 80.8127 78.9319 72.4356H79.1314L80.7271 95.3729H80.5276C76.5385 86.8961 73.6464 84.6023 67.9619 84.6023H66.6655V120.704H70.854C79.9292 120.704 81.6246 118.809 88.1069 102.055H88.3064L87.2093 122H55.5957ZM5.14364 98.9631C4.24609 111.429 3.04936 117.612 0.955078 121.801V122H13.0221V121.801C6.34037 117.812 5.54255 113.124 6.53982 98.9631L8.6341 67.2497H8.83356L23.8924 114.221H24.0919L39.4499 63.3603H39.6494L43.6385 111.928C44.1371 118.31 43.3393 119.806 39.8489 121.801V122H51.1181L46.1317 62.2633C45.633 55.8808 46.4309 54.3848 49.9213 52.3903V52.1908H38.5524L38.6521 53.8862C38.9513 57.6759 38.7518 60.0693 37.7546 63.4601L26.7845 100.958H26.5851L10.8281 52.1908H3.74745V52.3903L5.44282 57.6759C6.93874 61.8644 7.33765 65.2552 6.93874 70.5407L5.14364 98.9631ZM268.797 208.496C261.018 208.496 255.733 203.31 254.137 194.933L263.412 183.863L263.711 184.063L262.215 193.238C260.619 203.609 263.611 207.1 268.298 207.1C273.684 207.1 276.775 202.512 276.775 195.731C276.775 190.745 274.98 186.955 270.393 179.974L261.916 167.807C257.927 161.923 255.733 156.737 255.733 150.754C255.733 141.978 260.719 135.695 268.199 135.695C275.279 135.695 280.266 141.18 281.562 148.959L272.786 159.729L272.487 159.53L273.883 150.654C275.578 140.382 272.686 136.991 268.598 136.991C263.611 136.991 261.317 141.978 261.317 147.164C261.317 152.349 263.312 157.934 267.102 163.419L276.177 176.085C280.266 181.869 282.859 187.254 282.859 193.437C282.859 202.712 276.875 208.496 268.797 208.496ZM217.117 206.801V207H248.731L249.828 187.055H249.628C243.146 203.809 241.451 205.704 232.375 205.704H228.187V169.602H229.483C235.168 169.602 238.06 171.896 242.049 180.373H242.248L240.653 157.436H240.453C237.561 165.813 235.068 168.406 229.284 168.406H228.187V138.388H232.176C241.75 138.388 243.246 140.681 248.132 154.344H248.332V137.191H217.117V137.39C220.508 139.385 221.705 140.881 221.705 147.263V196.928C221.705 203.31 220.508 204.806 217.117 206.801ZM162.476 206.801C164.571 202.612 165.767 196.429 166.665 183.963L168.46 155.541C168.859 150.255 168.46 146.864 166.964 142.676L165.269 137.39V137.191H172.349L188.106 185.958H188.306L199.276 148.46C200.273 145.069 200.473 142.676 200.173 138.886L200.074 137.191H211.443V137.39C207.952 139.385 207.154 140.881 207.653 147.263L212.639 207H201.37V206.801C204.861 204.806 205.659 203.31 205.16 196.928L201.171 148.36H200.971L185.613 199.221H185.414L170.355 152.25H170.155L168.061 183.963C167.064 198.124 167.862 202.812 174.543 206.801V207H162.476V206.801ZM132.222 183.963C129.928 196.728 128.133 203.211 125.939 206.801V207H137.407V206.801C132.62 203.011 131.224 198.523 133.119 186.157H147.879L150.173 197.127C151.469 203.41 151.07 204.806 147.679 206.801V207H158.849L144.388 137.191H137.806L138.205 139.485C138.804 142.277 138.903 144.471 138.305 147.263L132.222 183.963ZM147.679 184.96H133.319L133.518 183.963L139.701 147.563H139.901L147.679 184.96ZM107.216 208.496C101.931 208.496 97.7423 204.906 95.3489 197.227L106.419 184.561L106.618 184.661L103.726 194.734C101.033 204.208 103.925 207.2 107.316 207.2C112.303 207.2 116.691 201.017 116.691 188.551V147.263C116.691 140.881 115.594 139.385 112.103 137.39V137.191H123.173V182.068C123.173 191.642 121.577 196.529 117.788 201.814C114.796 206.003 111.405 208.496 107.216 208.496ZM25.2069 190.839C25.2069 199.278 30.6009 204.498 37.9089 204.498C43.9119 204.498 48.1749 201.366 52.2639 195.972C54.6999 198.669 57.2229 201.105 59.6589 203.193H66.9669V203.019C63.1389 199.713 59.2239 195.711 55.4829 191.274C59.6589 184.14 62.3559 177.441 65.0529 167.523H51.6549V167.697L53.4819 169.002C58.8759 172.743 58.8759 181.095 54.6999 190.317C49.0449 183.531 43.8249 175.962 40.1709 168.915C47.1309 162.825 51.5679 157.953 51.5679 151.689C51.5679 145.338 47.8269 140.988 40.9539 140.988C33.7329 140.988 29.6439 145.947 29.6439 153.516C29.6439 158.562 31.8189 164.913 35.2119 171.612C28.4259 177.963 25.2069 184.14 25.2069 190.839ZM40.6929 201.105C35.2119 201.105 30.6009 196.929 30.6009 188.751C30.6009 183.618 32.1669 178.224 35.9079 172.917C39.9969 180.66 45.6519 188.577 51.5679 195.189C48.1749 199.365 44.9559 201.105 40.6929 201.105ZM39.5619 167.697C36.5169 161.52 34.6029 155.778 34.6029 151.341C34.6029 144.642 37.2129 142.119 40.9539 142.119C44.6949 142.119 46.9569 145.86 46.9569 151.863C46.9569 156.039 44.3469 162.129 39.5619 167.697ZM82.3426 183.093C81.4322 179.386 80.5217 178.476 76.8148 177.565V177.435C80.5217 176.525 81.4322 175.614 82.3426 171.907H82.4727C83.3831 175.614 84.3586 176.46 88.0005 177.435V177.565C84.3586 178.476 83.4482 179.386 82.4727 183.093H82.3426ZM1.0005 180.051C4.7074 180.961 5.61786 181.872 6.52833 185.579H6.65839C7.63389 181.872 8.54436 180.961 12.1862 180.051V179.921C8.54436 178.945 7.56886 178.1 6.65839 174.393H6.52833C5.61786 178.1 4.7074 179.01 1.0005 179.921V180.051Z" fill="#133244"/>
</svg>
